<svg viewBox="0 0 536.275 536.275" fill="#e9ecef" xmlns="http://www.w3.org/2000/svg">
    <path d="M75.408 385.452a8.379 8.379 0 0 1-5.907-14.287 8.632 8.632 0 0 1 11.857 0 8.379 8.379 0 0 1-5.95 14.287z"/>
    <path
        d="M498.576 131.006 272.327 1.123a8.38 8.38 0 0 0-8.38 0L37.699 131.006a8.38 8.38 0 0 0-4.19 7.248v259.767a8.378 8.378 0 0 0 4.19 7.248l226.248 129.883a8.38 8.38 0 0 0 8.38 0l226.248-129.883a8.38 8.38 0 0 0 4.19-7.248V138.254a8.379 8.379 0 0 0-4.189-7.248zM268.138 17.882l209.489 120.372-209.489 120.205-209.49-120.205zM50.269 152.709l209.489 120.289V513.45L50.269 393.161zm226.248 360.74V272.998l209.489-120.289v240.452z"/>
    <path
        d="M240.569 283.179a7.478 7.478 0 0 0-1.299-1.047 9.463 9.463 0 0 0-1.425-.796 7.598 7.598 0 0 0-1.592-.461 8.379 8.379 0 0 0-7.542 2.304 8.379 8.379 0 0 0 5.908 14.287 7.2 7.2 0 0 0 1.634 0 7.598 7.598 0 0 0 1.592-.461c.497-.224.973-.49 1.425-.796.471-.3.906-.651 1.299-1.047a8.38 8.38 0 0 0 0-11.815zm-41.856 16.172a8.38 8.38 0 1 0 8.12 14.661 8.38 8.38 0 0 0-8.114-14.664l-.006.003zm-31.843 17.598a8.38 8.38 0 1 0 8.12 14.661 8.38 8.38 0 0 0-8.114-14.664l-.006.003zm-63.684 35.194a8.38 8.38 0 1 0 8.12 14.661 8.38 8.38 0 0 0-8.114-14.664l-.006.003zm31.842-17.597a8.38 8.38 0 1 0 8.12 14.661 8.38 8.38 0 0 0-8.114-14.664l-.006.003zm319.932 36.618a8.377 8.377 0 0 0-2.472 5.908 8.38 8.38 0 0 0 16.76 0 8.382 8.382 0 0 0-2.43-5.908 8.633 8.633 0 0 0-11.858 0zm-21.871-19.021a8.38 8.38 0 1 0-8.13 14.656 8.38 8.38 0 0 0 8.136-14.653l-.006-.003zm-63.684-35.194a8.38 8.38 0 1 0-7.795 14.837 8.38 8.38 0 0 0 7.795-14.837zm31.842 17.597a8.38 8.38 0 1 0-8.13 14.656 8.38 8.38 0 0 0 8.136-14.653l-.006-.003zm-63.685-35.195a8.38 8.38 0 1 0-8.13 14.656 8.38 8.38 0 0 0 8.136-14.653l-.006-.003zm-28.155-13.491a6.81 6.81 0 0 0-.796-1.424 6.488 6.488 0 0 0-2.304-2.304 6.835 6.835 0 0 0-1.424-.796 7.598 7.598 0 0 0-1.592-.461 8.38 8.38 0 0 0-7.583 2.262 9.882 9.882 0 0 0-1.006 1.299c-.321.441-.589.92-.796 1.424a6.947 6.947 0 0 0-.461 1.592 8.03 8.03 0 0 0 0 3.268c.095.546.25 1.08.461 1.592.207.505.475.983.796 1.425.298.46.635.895 1.006 1.299a8.376 8.376 0 0 0 5.949 2.43 7.2 7.2 0 0 0 1.634 0 7.598 7.598 0 0 0 1.592-.461 6.81 6.81 0 0 0 1.424-.796 6.488 6.488 0 0 0 2.304-2.304c.321-.441.589-.92.796-1.424a7.598 7.598 0 0 0 .461-1.592 8.03 8.03 0 0 0 0-3.268 6.96 6.96 0 0 0-.461-1.761zm-45.92-232.826c.451.306.928.572 1.425.796a7.598 7.598 0 0 0 1.592.461 8.03 8.03 0 0 0 3.268 0 6.6 6.6 0 0 0 1.55-.461 8.413 8.413 0 0 0 1.466-.796 9.043 9.043 0 0 0 2.304-2.304c.313-.461.58-.952.796-1.466a6.662 6.662 0 0 0 .461-1.55 8.03 8.03 0 0 0 0-3.268 7.598 7.598 0 0 0-.461-1.592 9.512 9.512 0 0 0-.796-1.425 5.983 5.983 0 0 0-1.047-1.257 8.38 8.38 0 0 0-7.542-2.472c-.546.095-1.08.25-1.592.461-.497.224-.973.49-1.425.796a9.043 9.043 0 0 0-2.304 2.304 9.463 9.463 0 0 0-.796 1.425 7.598 7.598 0 0 0-.461 1.592 7.224 7.224 0 0 0-.168 1.802 8.378 8.378 0 0 0 2.472 5.908c.37.404.793.756 1.258 1.046z"/>
    <circle cx="268.138" cy="118.143" r="8.38"/>
    <circle cx="268.138" cy="82.111" r="8.38"/>
    <circle cx="268.138" cy="154.175" r="8.38"/>
    <circle cx="268.138" cy="190.208" r="8.38"/>
    <path
        d="M275.889 223.014a9.512 9.512 0 0 0-.796-1.425 5.983 5.983 0 0 0-1.047-1.257 8.379 8.379 0 0 0-7.542-2.304c-.546.095-1.08.25-1.592.461-.497.224-.973.49-1.425.796a9.043 9.043 0 0 0-2.304 2.304 9.463 9.463 0 0 0-.796 1.425 7.598 7.598 0 0 0-.461 1.592 7.243 7.243 0 0 0-.168 1.634 8.378 8.378 0 0 0 2.472 5.908c.369.405.792.758 1.257 1.047.451.306.928.572 1.425.796a7.598 7.598 0 0 0 1.592.461 8.03 8.03 0 0 0 3.268 0 6.6 6.6 0 0 0 1.55-.461 8.413 8.413 0 0 0 1.466-.796 9.043 9.043 0 0 0 2.304-2.304c.313-.461.58-.952.796-1.466a6.662 6.662 0 0 0 .461-1.55 8.03 8.03 0 0 0 0-3.268 6.938 6.938 0 0 0-.46-1.593z"/>
</svg>
