<svg id="Color" enable-background="new 0 0 24 24" height="512" viewBox="0 0 24 24" width="512" xmlns="http://www.w3.org/2000/svg"><g fill="#90a4ae"><path d="m23.25 1h-14.5c-.414 0-.75.336-.75.75s.336.75.75.75h14.5c.414 0 .75-.336.75-.75s-.336-.75-.75-.75z"/><path d="m23.25 4h-14.5c-.414 0-.75.336-.75.75s.336.75.75.75h14.5c.414 0 .75-.336.75-.75s-.336-.75-.75-.75z"/><path d="m23.25 10h-14.5c-.414 0-.75.336-.75.75s.336.75.75.75h14.5c.414 0 .75-.336.75-.75s-.336-.75-.75-.75z"/><path d="m23.25 13h-14.5c-.414 0-.75.336-.75.75s.336.75.75.75h14.5c.414 0 .75-.336.75-.75s-.336-.75-.75-.75z"/><path d="m23.25 19h-14.5c-.414 0-.75.336-.75.75s.336.75.75.75h14.5c.414 0 .75-.336.75-.75s-.336-.75-.75-.75z"/><path d="m23.25 22h-14.5c-.414 0-.75.336-.75.75s.336.75.75.75h14.5c.414 0 .75-.336.75-.75s-.336-.75-.75-.75z"/></g><circle cx="3" cy="3" fill="#cfd8dc" r="3"/><circle cx="3" cy="12" fill="#cfd8dc" r="3"/><circle cx="3" cy="21" fill="#cfd8dc" r="3"/></svg>