<svg id="Color" enable-background="new 0 0 24 24" height="512" viewBox="0 0 24 24" width="512" xmlns="http://www.w3.org/2000/svg"><g fill="#90a4ae"><path d="m23.25 16.5h-22.5c-.414 0-.75.336-.75.75s.336.75.75.75h22.5c.414 0 .75-.336.75-.75s-.336-.75-.75-.75z"/><path d="m23.25 19.5h-22.5c-.414 0-.75.336-.75.75s.336.75.75.75h22.5c.414 0 .75-.336.75-.75s-.336-.75-.75-.75z"/><path d="m23.25 22.5h-22.5c-.414 0-.75.336-.75.75s.336.75.75.75h22.5c.414 0 .75-.336.75-.75s-.336-.75-.75-.75z"/></g><path d="m24 1.5v12c0 .83-.67 1.5-1.5 1.5h-21c-.83 0-1.5-.67-1.5-1.5v-12c0-.83.67-1.5 1.5-1.5h21c.83 0 1.5.67 1.5 1.5z" fill="#90caf9"/><path d="m24 7.9v5.6c0 .83-.67 1.5-1.5 1.5h-15.06c0-.02.01-.03.03-.05l10.51-10.51c.56-.56 1.46-.59 2.06-.06z" fill="#689f38"/><path d="m16.59 15h-15.09c-.83 0-1.5-.67-1.5-1.5v-1.59l5.95-5.5c.6-.55 1.51-.53 2.08.04z" fill="#8bc34a"/></svg>