<svg id="Color" enable-background="new 0 0 24 24" height="512" viewBox="0 0 24 24" width="512" xmlns="http://www.w3.org/2000/svg"><g fill="#90a4ae"><path d="m.75 18h9.5c.414 0 .75-.336.75-.75s-.336-.75-.75-.75h-9.5c-.414 0-.75.336-.75.75s.336.75.75.75z"/><path d="m.75 21h9.5c.414 0 .75-.336.75-.75s-.336-.75-.75-.75h-9.5c-.414 0-.75.336-.75.75s.336.75.75.75z"/><path d="m.75 24h9.5c.414 0 .75-.336.75-.75s-.336-.75-.75-.75h-9.5c-.414 0-.75.336-.75.75s.336.75.75.75z"/><path d="m23.25 16.5h-9.5c-.414 0-.75.336-.75.75s.336.75.75.75h9.5c.414 0 .75-.336.75-.75s-.336-.75-.75-.75z"/><path d="m23.25 19.5h-9.5c-.414 0-.75.336-.75.75s.336.75.75.75h9.5c.414 0 .75-.336.75-.75s-.336-.75-.75-.75z"/><path d="m23.25 22.5h-9.5c-.414 0-.75.336-.75.75s.336.75.75.75h9.5c.414 0 .75-.336.75-.75s-.336-.75-.75-.75z"/></g><path d="m11 1.5v12c0 .09-.01.18-.03.27-.12.7-.73 1.23-1.47 1.23h-8c-.48 0-.9-.22-1.17-.57-.21-.25-.33-.58-.33-.93v-12c0-.83.67-1.5 1.5-1.5h8c.83 0 1.5.67 1.5 1.5z" fill="#90caf9"/><path d="m11 8.82v4.68c0 .09-.01.18-.03.27-.12.7-.73 1.23-1.47 1.23h-8c-.48 0-.9-.22-1.17-.57l6.9-8.29c.38-.46 1.16-.46 1.54 0z" fill="#689f38"/><path d="m10.97 13.77c-.12.7-.73 1.23-1.47 1.23h-8c-.83 0-1.5-.67-1.5-1.5v-3.71l2.79-2.79c.39-.39 1.03-.39 1.42 0z" fill="#8bc34a"/><path d="m24 1.5v12c0 .09-.01.18-.03.27-.12.7-.73 1.23-1.47 1.23h-8c-.48 0-.9-.22-1.17-.57-.21-.25-.33-.58-.33-.93v-12c0-.83.67-1.5 1.5-1.5h8c.83 0 1.5.67 1.5 1.5z" fill="#90caf9"/><path d="m24 8.82v4.68c0 .09-.01.18-.03.27-.12.7-.73 1.23-1.47 1.23h-8c-.48 0-.9-.22-1.17-.57l6.9-8.29c.38-.46 1.16-.46 1.54 0z" fill="#689f38"/><path d="m23.97 13.77c-.12.7-.73 1.23-1.47 1.23h-8c-.83 0-1.5-.67-1.5-1.5v-3.71l2.79-2.79c.39-.39 1.03-.39 1.42 0z" fill="#8bc34a"/></svg>