<svg id="Color" enable-background="new 0 0 24 24" height="512" viewBox="0 0 24 24" width="512" xmlns="http://www.w3.org/2000/svg"><g fill="#90a4ae"><path d="m23.25 2h-9.5c-.414 0-.75.336-.75.75s.336.75.75.75h9.5c.414 0 .75-.336.75-.75s-.336-.75-.75-.75z"/><path d="m23.25 5h-9.5c-.414 0-.75.336-.75.75s.336.75.75.75h9.5c.414 0 .75-.336.75-.75s-.336-.75-.75-.75z"/><path d="m23.25 8h-9.5c-.414 0-.75.336-.75.75s.336.75.75.75h9.5c.414 0 .75-.336.75-.75s-.336-.75-.75-.75z"/><path d="m23.25 15h-9.5c-.414 0-.75.336-.75.75s.336.75.75.75h9.5c.414 0 .75-.336.75-.75s-.336-.75-.75-.75z"/><path d="m23.25 18h-9.5c-.414 0-.75.336-.75.75s.336.75.75.75h9.5c.414 0 .75-.336.75-.75s-.336-.75-.75-.75z"/><path d="m23.25 21h-9.5c-.414 0-.75.336-.75.75s.336.75.75.75h9.5c.414 0 .75-.336.75-.75s-.336-.75-.75-.75z"/></g><path d="m9.5 0c.83 0 1.5.67 1.5 1.5v8c0 .62-.38 1.16-.92 1.38-.18.08-.37.12-.58.12h-8c-.83 0-1.5-.67-1.5-1.5v-8c0-.83.67-1.5 1.5-1.5z" fill="#90caf9"/><path d="m11 6.82v2.68c0 .83-.67 1.5-1.5 1.5h-7.99l5.722-6.853c.19-.227.472-.359.768-.359s.578.131.768.359z" fill="#689f38"/><path d="m10.08 10.88c-.18.08-.37.12-.58.12h-8c-.83 0-1.5-.67-1.5-1.5v-1.71l2.793-2.793c.188-.188.442-.293.708-.293s.52.106.707.294z" fill="#8bc34a"/><path d="m9.5 13c.83 0 1.5.67 1.5 1.5v8c0 .62-.38 1.16-.92 1.38-.18.08-.37.12-.58.12h-8c-.83 0-1.5-.67-1.5-1.5v-8c0-.83.67-1.5 1.5-1.5z" fill="#90caf9"/><path d="m11 19.82v2.68c0 .83-.67 1.5-1.5 1.5h-7.99l5.722-6.853c.19-.227.472-.359.768-.359s.578.131.768.359z" fill="#689f38"/><path d="m10.08 23.88c-.18.08-.37.12-.58.12h-8c-.83 0-1.5-.67-1.5-1.5v-1.71l2.793-2.793c.188-.188.442-.293.708-.293s.52.106.707.294z" fill="#8bc34a"/></svg>