<svg id="Color" enable-background="new 0 0 24 24" height="512" viewBox="0 0 24 24" width="512" xmlns="http://www.w3.org/2000/svg"><path d="m19.5 24h-18c-.828 0-1.5-.672-1.5-1.5v-18c0-.828.672-1.5 1.5-1.5h18c.828 0 1.5.672 1.5 1.5v18c0 .828-.672 1.5-1.5 1.5z" fill="#90caf9"/><path d="m21 13.97v8.53c0 .64-.4 1.18-.96 1.39-.17.07-.35.11-.54.11h-18c-.24 0-.47-.06-.67-.17l14.74-12.48c.54-.45 1.31-.47 1.87-.05z" fill="#689f38"/><circle cx="20" cy="4" fill="#f44336" r="4"/><path d="m20.04 23.89c-.17.07-.35.11-.54.11h-18c-.83 0-1.5-.67-1.5-1.5v-5.52l4.57-3.66c.55-.43 1.31-.44 1.86-.01z" fill="#8bc34a"/></svg>