<svg id="Color" enable-background="new 0 0 24 24" height="512" viewBox="0 0 24 24" width="512" xmlns="http://www.w3.org/2000/svg"><path d="m22.25 0h-20.5c-.965 0-1.75.785-1.75 1.75v20.5c0 .965.785 1.75 1.75 1.75h20.5c.965 0 1.75-.785 1.75-1.75v-20.5c0-.965-.785-1.75-1.75-1.75z" fill="#cfd8dc"/><path d="m17.25 6h-10.5c-.965 0-1.75.785-1.75 1.75v9.5c0 .965.785 1.75 1.75 1.75h10.5c.965 0 1.75-.785 1.75-1.75v-9.5c0-.965-.785-1.75-1.75-1.75z" fill="#fff"/><circle cx="18" cy="7" fill="#f44336" r="3"/><g fill="#03a9f4"><circle cx="12" cy="10.5" r="1.5"/><path d="m15 15.25c0 .41-.34.75-.75.75h-4.5c-.41 0-.75-.34-.75-.75v-.37c0-1.04.94-1.88 2.1-1.88h1.8c1.16 0 2.1.84 2.1 1.88z"/></g></svg>