<svg height="512" viewBox="0 0 24 24" width="512" xmlns="http://www.w3.org/2000/svg"><path d="M19.25 2.998H1.725C.773 2.998 0 3.772 0 4.723v17.551c0 .951.773 1.725 1.725 1.725h17.551c.951 0 1.725-.773 1.725-1.725V4.748a1.754 1.754 0 00-1.751-1.75z" fill="#eceff1"/><g fill="#90a4ae"><path d="M3.75 16h13.5c.41 0 .75.34.75.75s-.34.75-.75.75H3.75c-.41 0-.75-.34-.75-.75s.34-.75.75-.75zM3 13.75c0-.41.34-.75.75-.75h13.5c.41 0 .75.34.75.75s-.34.75-.75.75H3.75c-.41 0-.75-.34-.75-.75zM3.75 19h13.5c.41 0 .75.34.75.75s-.34.75-.75.75H3.75c-.41 0-.75-.34-.75-.75s.34-.75.75-.75zM17.25 10c.41 0 .75.34.75.75s-.34.75-.75.75H3.75c-.41 0-.75-.34-.75-.75s.34-.75.75-.75zM3 7.75c0-.41.34-.75.75-.75h9.5c.41 0 .75.34.75.75s-.34.75-.75.75h-9.5c-.41 0-.75-.34-.75-.75z"/></g><circle cx="20" cy="4" fill="#f44336" r="4"/></svg>