<svg height="512" viewBox="0 0 24 24" width="512" xmlns="http://www.w3.org/2000/svg"><g fill="#90a4ae"><path d="M.75 3.5h9.5a.75.75 0 000-1.5H.75a.75.75 0 000 1.5zM.75 6.5h9.5a.75.75 0 000-1.5H.75a.75.75 0 000 1.5zM.75 9.5h9.5a.75.75 0 000-1.5H.75a.75.75 0 000 1.5zM.75 16.5h9.5a.75.75 0 000-1.5H.75a.75.75 0 000 1.5zM.75 19.5h9.5a.75.75 0 000-1.5H.75a.75.75 0 000 1.5zM.75 22.5h9.5a.75.75 0 000-1.5H.75a.75.75 0 000 1.5z"/></g><path d="M22.5 0c.83 0 1.5.67 1.5 1.5v8c0 .62-.38 1.16-.92 1.38a1.4 1.4 0 01-.58.12h-8c-.83 0-1.5-.67-1.5-1.5v-8c0-.83.67-1.5 1.5-1.5z" fill="#90caf9"/><path d="M24 6.82V9.5c0 .83-.67 1.5-1.5 1.5h-7.99l5.722-6.853a1.003 1.003 0 011.536 0z" fill="#689f38"/><path d="M23.08 10.88a1.4 1.4 0 01-.58.12h-8c-.83 0-1.5-.67-1.5-1.5V7.79l2.793-2.793a1 1 0 011.415.001z" fill="#8bc34a"/><path d="M22.5 13c.83 0 1.5.67 1.5 1.5v8c0 .62-.38 1.16-.92 1.38a1.4 1.4 0 01-.58.12h-8c-.83 0-1.5-.67-1.5-1.5v-8c0-.83.67-1.5 1.5-1.5z" fill="#90caf9"/><path d="M24 19.82v2.68c0 .83-.67 1.5-1.5 1.5h-7.99l5.722-6.853a.998.998 0 011.536 0z" fill="#689f38"/><path d="M23.08 23.88a1.4 1.4 0 01-.58.12h-8c-.83 0-1.5-.67-1.5-1.5v-1.71l2.793-2.793a1 1 0 011.415.001z" fill="#8bc34a"/></svg>